HIERARCHY
ROOT SpineBase
{
  OFFSET 0.000000 0.000000 0.000000
  CHANNELS 6 Xposition Yposition Zposition Zrotation Xrotation Yrotation
  JOINT SpineMid
  {
    OFFSET 0.000000 32.596670 0.000000
    CHANNELS 3 Zrotation Xrotation Yrotation
    JOINT SpineShoulder
    {
      OFFSET -0.041912 24.069850 -0.743775
      CHANNELS 3 Zrotation Xrotation Yrotation
      JOINT Neck
      {
        OFFSET -0.003439 7.886379 -0.557971
        CHANNELS 3 Zrotation Xrotation Yrotation
        JOINT Head
        {
          OFFSET -5.713401 11.445878 4.278520
          CHANNELS 3 Zrotation Xrotation Yrotation
          End Site
          {
            OFFSET 0 0 0
          }
        }
      }
      JOINT ShoulderLeft
      {
        OFFSET -16.130273 -11.643984 8.658318
        CHANNELS 3 Zrotation Xrotation Yrotation
        JOINT ElbowLeft
        {
          OFFSET 26.340741 -12.566046 -1.528698
          CHANNELS 3 Zrotation Xrotation Yrotation
          JOINT WristLeft
          {
            OFFSET -14.864786 -21.912004 -12.915329
            CHANNELS 3 Zrotation Xrotation Yrotation
            JOINT HandLeft
            {
              OFFSET 1.604391 -5.390169 -3.511056
              CHANNELS 3 Zrotation Xrotation Yrotation
              JOINT HandTipLeft
              {
                OFFSET 0.063769 -7.951861 0.071526
                CHANNELS 3 Zrotation Xrotation Yrotation
                End Site
                {
                  OFFSET 0 0 0
                }
              }
              JOINT ThumbLeft
              {
                OFFSET 5.480480 -0.870686 -6.481650
                CHANNELS 3 Zrotation Xrotation Yrotation
                End Site
                {
                  OFFSET 0 0 0
                }
              }
            }
          }
        }
      }
      JOINT ShoulderRight
      {
        OFFSET 6.810200 -6.798386 -12.974193
        CHANNELS 3 Zrotation Xrotation Yrotation
        JOINT ElbowRight
        {
          OFFSET 6.126727 -27.505366 -6.599440
          CHANNELS 3 Zrotation Xrotation Yrotation
          JOINT WristRight
          {
            OFFSET -3.246104 -22.138854 -4.888528
            CHANNELS 3 Zrotation Xrotation Yrotation
            JOINT HandRight
            {
              OFFSET -0.395770 -7.239806 1.467632
              CHANNELS 3 Zrotation Xrotation Yrotation
              JOINT HandTipRight
              {
                OFFSET -1.824100 -7.168453 0.322750
                CHANNELS 3 Zrotation Xrotation Yrotation
                End Site
                {
                  OFFSET 0 0 0
                }
              }
              JOINT ThumbRight
              {
                OFFSET -4.686447 1.533863 5.030055
                CHANNELS 3 Zrotation Xrotation Yrotation
                End Site
                {
                  OFFSET 0 0 0
                }
              }
            }
          }
        }
      }
    }
  }
  JOINT HipLeft
  {
    OFFSET -5.738902 0.755047 0.847034
    CHANNELS 3 Zrotation Xrotation Yrotation
    JOINT KneeLeft
    {
      OFFSET 8.863268 -32.110047 -9.466167
      CHANNELS 3 Zrotation Xrotation Yrotation
      JOINT AnkleLeft
      {
        OFFSET 18.238369 -40.507337 -0.384277
        CHANNELS 3 Zrotation Xrotation Yrotation
        JOINT FootLeft
        {
          OFFSET -4.889713 -3.740322 -0.205910
          CHANNELS 3 Zrotation Xrotation Yrotation
          End Site
          {
            OFFSET 0 0 0
          }
        }
      }
    }
  }
  JOINT HipRight
  {
    OFFSET 5.714249 0.404121 -8.394008
    CHANNELS 3 Zrotation Xrotation Yrotation
    JOINT KneeRight
    {
      OFFSET 7.125711 -36.843541 -0.547529
      CHANNELS 3 Zrotation Xrotation Yrotation
      JOINT AnkleRight
      {
        OFFSET 11.288336 -30.783885 0.374257
        CHANNELS 3 Zrotation Xrotation Yrotation
        JOINT FootRight
        {
          OFFSET -2.556398 -12.254942 -2.468961
          CHANNELS 3 Zrotation Xrotation Yrotation
          End Site
          {
            OFFSET 0 0 0
          }
        }
      }
    }
  }
}
MOTION
Frames: 7
Frame Time: 0.033333
-0.225670 82.047539 302.546976 0.482436 0.436858 39.095314 -0.649902 -0.034802 -39.097351 -0.000000 0.000000 0.000000 12.493414 5.381453 -2.415178 0.000000 0.000000 0.000000 -0.000000 0.000000 0.000000 -0.000000 0.000000 0.000000 8.209491 -1.809941 -5.697719 -9.947701 -1.081844 5.865616 0.000000 0.000000 0.000000 0.000000 0.000000 0.000000 0.941960 0.345148 -0.151582 -0.941061 -0.347592 0.145890 3.800518 7.296743 0.130799 -2.753890 -8.585007 -0.085259 0.000000 0.000000 0.000000 0.000000 0.000000 0.000000 -5.708521 -17.894417 -47.019325 -22.424335 27.142398 19.489654 16.399403 17.033008 -48.589939 0.000000 0.000000 0.000000 -1.944550 5.607347 -38.270878 5.882800 -5.004853 -1.001126 -12.739225 20.044549 0.918985 0.000000 0.000000 0.000000
-0.052973 81.901342 302.325667 0.572797 0.282585 38.554464 -0.624056 0.136020 -38.555136 -0.000000 0.000000 0.000000 13.875696 4.037017 -3.432913 0.000000 0.000000 0.000000 -0.000000 0.000000 0.000000 -0.000000 0.000000 0.000000 10.548969 -1.388224 -7.029257 -13.184517 -2.644243 7.061976 0.000000 0.000000 0.000000 0.000000 0.000000 0.000000 1.166375 0.132504 -0.251056 0.105156 -0.345617 0.004033 3.212602 10.046560 0.228887 -2.804458 -10.720801 -0.141819 0.000000 0.000000 0.000000 0.000000 0.000000 0.000000 -8.323889 -23.231009 -49.545289 -31.789757 35.627057 29.802961 18.943910 9.219937 -47.984305 0.000000 0.000000 0.000000 -2.012193 7.524864 -37.415591 7.530306 -6.444029 -1.098317 -20.221188 30.763911 2.919377 0.000000 0.000000 0.000000
0.135421 81.671855 301.717245 0.620026 0.054188 37.626372 -0.524153 0.335611 -37.625130 -0.000000 0.000000 0.000000 13.638641 0.844370 -4.517301 0.000000 0.000000 0.000000 -0.000000 0.000000 0.000000 -0.000000 0.000000 0.000000 12.498805 -1.146239 -8.162529 -15.538091 -3.511305 8.057465 0.000000 0.000000 0.000000 0.000000 0.000000 0.000000 1.329450 -0.450615 -0.413458 0.684172 0.383527 -0.026602 2.044821 12.164106 0.175597 -1.663094 -12.168785 0.048978 0.000000 0.000000 0.000000 0.000000 0.000000 0.000000 -9.595767 -28.084523 -51.449569 -43.719362 41.116059 41.602543 26.204594 -0.102908 -46.634987 0.000000 0.000000 0.000000 -1.906283 8.962737 -36.243498 8.763896 -7.394865 -1.057394 -27.776980 39.863699 5.980994 0.000000 0.000000 0.000000
0.358894 81.426134 300.850016 0.666615 -0.035337 36.627419 -0.513908 0.426061 -36.625302 0.593836 -0.554913 0.044633 12.926264 -2.223733 -5.998412 0.000000 0.000000 0.000000 -0.593431 0.555346 -0.038882 -0.000000 0.000000 0.000000 11.976649 -1.265661 -7.872012 -14.617172 -2.240731 7.865817 0.000000 0.000000 0.000000 0.000000 0.000000 0.000000 0.977506 -0.459178 -0.642504 1.146950 1.081835 -0.046716 0.996293 15.167482 0.053827 -0.261440 -13.340855 0.115280 0.000000 0.000000 0.000000 0.000000 0.000000 0.000000 -11.235624 -30.679778 -52.241765 -49.750326 45.044465 49.149638 30.999371 -6.741798 -44.447007 0.000000 0.000000 0.000000 -1.892642 9.695647 -35.105863 9.604230 -7.630334 -0.881461 -34.194315 45.985731 9.083237 0.000000 0.000000 0.000000
0.641487 80.943568 299.765754 0.633124 -0.627130 35.248084 -0.286406 -0.189184 -35.228586 0.078925 -0.317655 0.027893 12.051096 -5.704163 -7.516383 0.000000 0.000000 0.000000 -0.586533 1.264966 -0.034499 -0.000000 0.000000 0.000000 13.270188 -6.757454 -9.922778 -14.516197 5.012229 11.261608 0.000000 0.000000 0.000000 0.000000 0.000000 0.000000 1.063053 -0.849977 -0.908637 1.781828 2.290138 -0.024522 -0.680900 16.871639 0.027000 1.242035 -13.313334 0.234561 0.000000 0.000000 0.000000 0.000000 0.000000 0.000000 -11.973052 -30.880378 -51.291044 -48.665719 48.160935 50.513509 34.268472 -9.819725 -43.316779 0.000000 0.000000 0.000000 -1.143125 10.160432 -33.682208 9.417212 -7.611614 -0.755244 -36.827404 50.113009 10.456289 0.000000 0.000000 0.000000
0.943190 80.355360 298.561589 0.537075 -1.546734 34.041938 -0.379641 -0.343026 -34.022603 0.112506 -0.169090 0.025795 10.649082 -8.772470 -8.949435 0.000000 0.000000 0.000000 -0.525686 2.212880 -0.026111 -0.000000 0.000000 0.000000 12.232591 -11.529755 -10.530168 -14.488655 11.613688 12.938338 0.000000 0.000000 0.000000 0.000000 0.000000 0.000000 1.072356 -1.308712 -1.212251 2.301753 3.844948 0.046774 -1.956065 17.569471 0.059268 2.174667 -13.024441 0.312410 0.000000 0.000000 0.000000 0.000000 0.000000 0.000000 -12.130791 -28.126757 -48.779192 -39.408391 52.220245 45.716410 32.715595 -11.665298 -43.390613 0.000000 0.000000 0.000000 0.217996 10.042231 -32.599953 8.292458 -7.078037 -0.656895 -36.761730 51.173933 10.160829 0.000000 0.000000 0.000000
1.182659 79.775741 297.462635 0.369018 -2.670065 33.328673 -0.452599 -0.441671 -33.315194 0.139617 -0.062951 0.019589 9.057121 -11.609517 -10.442975 0.000000 0.000000 0.000000 -0.371726 3.350846 -0.013994 -0.000000 0.000000 0.000000 10.249543 -12.191725 -9.630421 -14.510357 12.978473 12.269396 0.000000 0.000000 0.000000 0.000000 0.000000 0.000000 1.200314 -1.523185 -1.513759 2.757471 5.150876 0.138080 -2.956609 18.328254 0.084437 2.815014 -14.666565 0.891474 0.000000 0.000000 0.000000 0.000000 0.000000 0.000000 -14.102408 -26.538468 -47.867902 -30.774630 55.063755 40.763646 27.331372 -8.078016 -47.434134 0.000000 0.000000 0.000000 2.090752 10.113634 -32.047714 7.492615 -7.130656 -0.653691 -33.312013 48.746349 7.564213 0.000000 0.000000 0.000000
